<svg width="22" height="22" viewBox="0 0 22 22" fill="none" xmlns="http://www.w3.org/2000/svg">
<g clip-path="url(#clip0_2414_5618)">
<path d="M2.32031 5.93046L5.71484 7.90702C6.16855 7.52099 6.47513 6.91419 6.91797 6.49073C7.92292 5.52986 9.24009 4.9943 10.6133 4.86355C11.6434 4.76545 12.7922 5.01643 13.707 5.49149C14.1767 5.73538 14.836 6.45691 15.3828 6.38954C15.9637 6.318 16.5367 5.46412 16.9297 5.07109C17.2026 4.79815 17.6411 4.49032 17.7887 4.12577C18.0335 3.52095 17.3389 3.09132 16.9297 2.79421C15.7587 1.944 14.3981 1.34536 12.9766 1.06657C9.77337 0.438375 6.31297 1.42231 3.99609 3.73905C3.38542 4.34968 2.62383 5.10146 2.32031 5.93046Z" fill="#EF4624"/>
<path d="M2.2786 5.92969C1.90039 6.80737 1.47736 7.61243 1.24284 8.55078C0.791891 10.355 0.890512 12.3759 1.47744 14.1367C1.68844 14.7697 2.01695 15.3342 2.2786 15.9414L3.48172 15.3055L5.75906 14.0078C5.64374 13.6074 5.40419 13.2422 5.26213 12.8477C5.00333 12.1289 4.87735 11.29 4.94996 10.5273C5.01042 9.89239 5.15037 9.27085 5.39177 8.67969C5.46787 8.49338 5.76542 8.11826 5.69813 7.91527C5.62045 7.68105 5.06052 7.48262 4.85672 7.36575C4.05486 6.90607 3.16519 6.19046 2.2786 5.92969Z" fill="#FFD501"/>
<path d="M16.6719 13.1494C16.1692 14.3746 15.2622 15.5066 14.0938 16.1572L14.6343 17.1884L16.0273 19.6376C16.6537 19.4083 17.2515 18.8765 17.7461 18.4412C19.5129 16.8859 20.6487 14.7454 20.9804 12.4189C21.0886 11.66 21.1234 10.8166 21.0173 10.0556C20.9574 9.62545 20.8477 9.26421 20.3672 9.17338C19.706 9.04838 18.9344 9.15327 18.2617 9.15327H13.9648C13.3675 9.15327 12.188 8.9294 11.692 9.31019C11.4296 9.51163 11.4297 9.84266 11.4297 10.1415V12.1611C11.4297 12.4971 11.4428 12.8598 11.7741 13.0455C12.1661 13.2652 12.7989 13.1494 13.2344 13.1494H16.6719Z" fill="#1682E1"/>
<path d="M2.32031 15.941C2.63109 16.7899 3.41427 17.5509 4.03906 18.1754C6.33024 20.4657 9.77449 21.409 12.9336 20.8132C14.0488 20.6029 15.0098 20.1544 16.0273 19.6793L15.4258 18.5192L14.0938 16.1989C13.5342 16.36 13.0336 16.6841 12.4609 16.8367C11.1019 17.199 9.53416 17.0259 8.29297 16.3575C7.56976 15.9679 6.9086 15.4533 6.37824 14.8239C6.23868 14.6582 5.93966 14.0408 5.71037 14.0391C5.41759 14.0368 4.97432 14.4201 4.72656 14.5656C3.93207 15.0322 3.13548 15.5117 2.32031 15.941Z" fill="#12AA44"/>
<path d="M6.35938 14.8242L6.40234 14.8672L6.35938 14.8242ZM7.08984 15.5547L7.13281 15.5977L7.08984 15.5547ZM8.50781 16.457L8.55078 16.5L8.50781 16.457ZM10.0977 16.9297L10.1406 16.9727L10.0977 16.9297ZM5.07031 19.0352L5.11328 19.0781L5.07031 19.0352ZM15.8555 19.7227L15.8984 19.7656L15.8555 19.7227ZM6.83203 20.0664L6.875 20.1094L6.83203 20.0664ZM8.55078 20.668L8.59375 20.7109L8.55078 20.668Z" fill="#1682E1"/>
</g>
<defs>
<clipPath id="clip0_2414_5618">
<rect width="22" height="22" fill="white"/>
</clipPath>
</defs>
</svg>
